<svg id="eCxJuvWe4Mr1" xmlns="http://www.w3.org/2000/svg" xmlns:xlink="http://www.w3.org/1999/xlink" viewBox="0 0 300 300" shape-rendering="geometricPrecision" text-rendering="geometricPrecision" project-id="a45d801a6a794db482d51ebe8033e4c7" export-id="2aa74632cae9495c85b13af55b7dc705" cached="false"><defs><clipPath id="eCxJuvWe4Mr4"><path id="eCxJuvWe4Mr5" d="M91.26,250.66l181.09,9.58c2.326364.209682,4.487926-1.21926,5.206421-3.441804s-.19755-4.646401-2.206421-5.838196l-.26-.17c-17-11.15-45.59-26-96.82-26.57h-1.61c-35.23,0-64.13,12.16-85.22,21l-1,.44c-1.139237.444494-1.812348,1.625249-1.614439,2.832008s1.212904,2.110664,2.434439,2.167992Z"/></clipPath></defs><g transform="matrix(.680136 0 0 0.680136 9.586292-23.852952)"><g><path d="M66.39,246c-9,2-34.7,1.87-35.55,8s2.53,6,1.42,21.15c-.79,10.67-5.32,31.54,5.3,37.74c15.78,9.2,60.3,11.16,107.7,11.57c78.34.69,224.42.84,234.25-1.46c2.74-.64,5.75-8.59,6.5-15.5c1.29-11.84-.41-14.86-5.27-16.13l1.37-8.4c.236825-1.456489-.366495-2.922248-1.56-3.79-5.55-4.05-23.72-15.2-62.94-21.59-12.22-2-19.63-1.39-38.12-13.49s-48.09-27.31-101.12-27.87-92.37,25.36-111.98,29.77Z" fill="#46b8c7"/><path d="M108.64,255.38c-5,8.44-5.06,15.47,10.14,30.43c12.37,12.18,21.67,21.94,26,26.54c1.718328,1.833563,4.107416,2.890969,6.62,2.93l116.22,1.89c2.792451.036166,5.339223-1.590937,6.48-4.14c4.28-9.69,13.49-33.92,6.52-49.51" fill="none" stroke="#4d81d3" stroke-width="3" stroke-linecap="round" stroke-miterlimit="10"/><path d="M191,315.15c2.31-17.43,1.13-38.08-.56-56.15" fill="none" stroke="#4d81d3" stroke-width="3" stroke-linecap="round" stroke-miterlimit="10"/><path d="M32.07,277.22l12.53-.58c3.856394-.162961,7.312466-2.428608,9-5.9l2.27-4.66c.649307-1.331793.565435-2.904365-.221846-4.159539s-2.166516-2.015257-3.648154-2.010461c-6,0-14.6,0-20.61,0c.68,2.71,1.57,6.34.91,15.21-.1.68-.16,1.38-.23,2.1Z" fill="#e0debe"/><g><path d="M91.26,250.66l181.09,9.58c2.326364.209682,4.487926-1.21926,5.206421-3.441804s-.19755-4.646401-2.206421-5.838196l-.26-.17c-17-11.15-45.59-26-96.82-26.57h-1.61c-35.23,0-64.13,12.16-85.22,21l-1,.44c-1.139237.444494-1.812348,1.625249-1.614439,2.832008s1.212904,2.110664,2.434439,2.167992Z" fill="#6ed2e6"/><g><g clip-path="url(#eCxJuvWe4Mr4)"><g><polygon points="202.57,296.95 223.57,296.95 277.29,169.82 256.29,169.82 202.57,296.95" fill="#97ecfc"/><polygon points="187.87,296.95 195.87,296.95 249.6,169.82 241.6,169.82 187.87,296.95" fill="#97ecfc"/><polygon points="148.21,296.14 153.21,296.14 206.93,169.01 201.93,169.01 148.21,296.14" fill="#97ecfc"/><polygon points="116.28,296.14 141.28,296.14 195,169.01 170,169.01 116.28,296.14" fill="#97ecfc"/><polygon points="102.62,296.14 110.62,296.14 164.34,169.01 156.34,169.01 102.62,296.14" fill="#97ecfc"/></g></g></g></g><path d="M189.11,224.57c-2-.11-4-.2-6.09-.26-.00935.136507-.00935.273493,0,.41c0,.27,2.31,13.45,4.08,31l6.1.32c-1.53-15.7-3.52-28.04-4.09-31.47Z" fill="#4d81d3"/><path d="M124.9,232.57c-12.67,3.94-23.87,8.65-33.45,12.68l-1,.44c-1.142901.447503-1.814763,1.635762-1.609058,2.84579s1.232483,2.109518,2.459058,2.15421l19.74,1v0c.47-.74,9.44-13.06,13.86-19.12Z" fill="#4faabd"/><path d="M277.05,261.42l-6.28,1.48c-1.216087.28149-2.494121-.009189-3.468833-.788959s-1.538845-1.962824-1.531167-3.211041v-5c.000476-1.165402.499292-2.274975,1.370641-3.048871s2.03205-1.138235,3.189359-1.001129l5.91.7c2.845826.320461,4.99764,2.726189,5,5.59v0c.019392,2.526549-1.725114,4.724876-4.19,5.28Z" fill="#4d81d3"/><path d="M381.85,284.47c-9.76-5.67-30.52-12.06-31.85-8.47-2.06,5.54,21.79,13.07,30.73,15.37" fill="#e0debe"/><path d="M117.59,259.38l16,.93c.534965.019231,1.011349.343956,1.224791.834873s.12601,1.06078-.224791,1.465127c-4.41,5-15.67,3.91-18.35-1.26-.211884-.444364-.171002-.967952.107284-1.374044s.751831-.633185,1.242716-.595956Z" fill="#4d81d3"/><path d="M200.59,263.45l16,.93c.534965.019231,1.011349.343956,1.224791.834873s.12601,1.06078-.224791,1.465127c-4.41,5-15.67,3.91-18.35-1.26-.211884-.444364-.171002-.967952.107284-1.374044s.751831-.633185,1.242716-.595956Z" fill="#4d81d3"/><path d="M355.12,303.62L351.4,316c-.239803.798756-.083455,1.664015.420719,2.328338s1.295459,1.04771,2.129281,1.031662c12.31-.25,20.54-.59,22.49-1c2.33-.54,4.88-7.29,5.52-13.15.11-1,.2-2,.25-2.87.049235-.704113-.188808-1.398148-.659839-1.923818s-1.134885-.838154-1.840161-.866182l-17.81-.73c-3.089294-.130381-5.87654,1.84289-6.78,4.8Z" fill="#4d81d3"/></g><g><circle r="28.2" transform="translate(318.42 314.02)" fill="#403945"/><circle r="19.24" transform="translate(318.42 314.02)" fill="#a8a8a8"/><circle r="14.87" transform="translate(318.42 314.02)" fill="#e0e0e0"/><line x1="318.42" y1="296.8" x2="318.42" y2="310.35" fill="none" stroke="#a8a8a8" stroke-width="2.51894" stroke-miterlimit="10"/><line x1="328.53" y1="300.09" x2="320.57" y2="311.05" fill="none" stroke="#a8a8a8" stroke-width="2.51894" stroke-miterlimit="10"/><line x1="334.79" y1="308.7" x2="321.9" y2="312.88" fill="none" stroke="#a8a8a8" stroke-width="2.51894" stroke-miterlimit="10"/><line x1="334.79" y1="319.34" x2="321.9" y2="315.15" fill="none" stroke="#a8a8a8" stroke-width="2.51894" stroke-miterlimit="10"/><line x1="328.53" y1="327.94" x2="320.57" y2="316.98" fill="none" stroke="#a8a8a8" stroke-width="2.51894" stroke-miterlimit="10"/><line x1="318.42" y1="331.23" x2="318.42" y2="317.68" fill="none" stroke="#a8a8a8" stroke-width="2.51894" stroke-miterlimit="10"/><line x1="308.3" y1="327.94" x2="316.26" y2="316.98" fill="none" stroke="#a8a8a8" stroke-width="2.51894" stroke-miterlimit="10"/><line x1="302.05" y1="319.34" x2="314.93" y2="315.15" fill="none" stroke="#a8a8a8" stroke-width="2.51894" stroke-miterlimit="10"/><line x1="302.05" y1="308.7" x2="314.93" y2="312.88" fill="none" stroke="#a8a8a8" stroke-width="2.51894" stroke-miterlimit="10"/><line x1="308.3" y1="300.09" x2="316.26" y2="311.05" fill="none" stroke="#a8a8a8" stroke-width="2.51894" stroke-miterlimit="10"/><circle r="4.91" transform="translate(318.42 314.02)" fill="#453e4a"/></g><g><circle r="28.2" transform="translate(96.13 314.02)" fill="#403945"/><circle r="19.24" transform="translate(96.13 314.02)" fill="#a8a8a8"/><circle r="14.87" transform="translate(96.13 314.02)" fill="#e0e0e0"/><line x1="96.13" y1="296.8" x2="96.13" y2="310.35" fill="none" stroke="#a8a8a8" stroke-width="2.51894" stroke-miterlimit="10"/><line x1="106.25" y1="300.09" x2="98.29" y2="311.05" fill="none" stroke="#a8a8a8" stroke-width="2.51894" stroke-miterlimit="10"/><line x1="112.5" y1="308.7" x2="99.62" y2="312.88" fill="none" stroke="#a8a8a8" stroke-width="2.51894" stroke-miterlimit="10"/><line x1="112.5" y1="319.34" x2="99.62" y2="315.15" fill="none" stroke="#a8a8a8" stroke-width="2.51894" stroke-miterlimit="10"/><line x1="106.25" y1="327.94" x2="98.29" y2="316.98" fill="none" stroke="#a8a8a8" stroke-width="2.51894" stroke-miterlimit="10"/><line x1="96.13" y1="331.23" x2="96.13" y2="317.68" fill="none" stroke="#a8a8a8" stroke-width="2.51894" stroke-miterlimit="10"/><line x1="86.01" y1="327.94" x2="93.97" y2="316.98" fill="none" stroke="#a8a8a8" stroke-width="2.51894" stroke-miterlimit="10"/><line x1="79.76" y1="319.34" x2="92.64" y2="315.15" fill="none" stroke="#a8a8a8" stroke-width="2.51894" stroke-miterlimit="10"/><line x1="79.76" y1="308.7" x2="92.64" y2="312.88" fill="none" stroke="#a8a8a8" stroke-width="2.51894" stroke-miterlimit="10"/><line x1="86.01" y1="300.09" x2="93.97" y2="311.05" fill="none" stroke="#a8a8a8" stroke-width="2.51894" stroke-miterlimit="10"/><circle r="4.91" transform="translate(96.13 314.02)" fill="#453e4a"/></g></g><g transform="matrix(.576859 0 0 0.62328 19.321492 37.42062)"><path d="M44.92,26.92L21.66,67.22c-1.041244,1.81171-1.038969,4.040804.005971,5.850385s2.97442,2.925812,5.064029,2.929615h46.54c2.097583.003896,4.037275-1.11366,5.085963-2.930285s1.046414-4.055225-.005963-5.869715L55.08,26.92c-1.045448-1.818068-2.98278-2.938836-5.08-2.938836s-4.034552,1.120768-5.08,2.938836Z" transform="matrix(1.648667 0 0 1.48308 139.509441 10.493137)" fill="#ec0000"/><g transform="matrix(.730883 0 0 0.730883 185.43102 52.558261)"><polygon points="54.94,61.28 56.34,19.59 43.62,19.59 45.02,61.28 54.94,61.28"/><path d="M54.83,69.59c-1.308159-1.213776-3.047035-1.854604-4.83-1.78-1.780778-.075157-3.516058.57422-4.81,1.8-1.219704,1.182205-1.887249,2.822044-1.84,4.52-.049066,1.692426.619213,3.326803,1.84,4.5c1.300228,1.213592,3.03298,1.854818,4.81,1.78c1.789616.078888,3.536296-.562161,4.85-1.78c2.417936-2.512799,2.417936-6.487201,0-9Z" fill="#050505"/></g></g></svg>
